<?xml version="1.0" standalone="no"?>
<!DOCTYPE svg PUBLIC "-//W3C//DTD SVG 20010904//EN"
 "http://www.w3.org/TR/2001/REC-SVG-20010904/DTD/svg10.dtd">
<svg version="1.0" xmlns="http://www.w3.org/2000/svg"
 width="314.000000pt" height="273.000000pt" viewBox="0 0 314.000000 273.000000"
 preserveAspectRatio="xMidYMid meet">

<g transform="translate(0.000000,273.000000) scale(0.100000,-0.100000)"
fill="#000000" stroke="none">
<path d="M1395 2503 c-445 -56 -831 -324 -1005 -696 -40 -86 -74 -197 -68
-226 2 -9 27 30 57 88 192 371 524 617 925 687 133 24 339 14 466 -21 236 -65
451 -205 596 -389 79 -100 134 -204 170 -321 25 -80 28 -106 28 -240 1 -165
-14 -238 -74 -371 -171 -378 -615 -650 -1012 -620 -447 34 -759 349 -800 809
-9 107 -8 126 11 211 28 118 82 231 154 321 31 39 57 74 57 78 0 16 -64 -29
-121 -86 -133 -132 -199 -307 -199 -524 1 -391 238 -750 586 -885 151 -58 225
-72 394 -71 171 0 264 18 426 83 268 106 512 330 638 584 200 405 128 857
-192 1197 -190 203 -457 343 -729 384 -90 14 -235 17 -308 8z"/>
<path d="M1386 1988 c-8 -13 -39 -88 -70 -168 -68 -179 -102 -260 -156 -373
-34 -71 -49 -91 -74 -102 -147 -64 -167 -75 -164 -92 2 -14 15 -19 61 -21 31
-2 57 -6 57 -9 0 -3 -38 -68 -85 -143 -83 -135 -110 -188 -101 -198 28 -27
214 146 306 286 39 58 62 84 80 88 64 14 225 56 232 60 5 3 11 -3 14 -13 54
-157 137 -306 205 -368 63 -57 71 -36 30 83 -50 149 -101 315 -101 333 0 9 25
27 62 45 88 41 178 101 178 118 0 7 -6 16 -14 19 -17 7 -116 -7 -201 -27 -33
-8 -61 -14 -62 -13 -1 1 -22 83 -47 182 -79 313 -109 376 -150 313z m33 -390
c7 -46 15 -97 18 -114 5 -30 3 -31 -56 -49 -34 -10 -64 -16 -67 -13 -3 4 11
50 31 103 19 53 38 109 42 125 9 49 18 34 32 -52z"/>
<path d="M2094 1705 c-6 -14 10 -147 22 -201 4 -17 -2 -23 -38 -33 -98 -30
-205 -99 -178 -116 12 -7 184 22 213 37 21 11 21 10 38 -110 14 -103 20 -118
43 -109 25 10 37 53 44 151 l7 90 95 19 c162 31 152 68 -19 73 l-95 4 -21 58
c-43 118 -94 181 -111 137z"/>
</g>
</svg>
